<svg id="Capa_1" data-name="Capa 1" xmlns="http://www.w3.org/2000/svg" viewBox="0 0 599.88 218.6"><defs><style>.cls-1,.cls-2{fill:#0071bc;}.cls-2{font-size:140px;font-family:FreebooterScript, Freebooter Script;}.cls-3{letter-spacing:0.03em;}.cls-4{letter-spacing:0.02em;}.cls-5{font-size:30px;font-family:ITCAvantGardePro-Bold, ITC Avant Garde Gothic Pro;font-weight:700;letter-spacing:0.04em;}.cls-6{letter-spacing:0.06em;}.cls-7{letter-spacing:0.03em;}.cls-8{letter-spacing:0.04em;}.cls-9{letter-spacing:0.03em;}.cls-10{letter-spacing:0.05em;}.cls-11{letter-spacing:0.03em;}.cls-12{letter-spacing:0.05em;}.cls-13{letter-spacing:0.04em;}</style></defs><title>logotipo</title><path class="cls-1" d="M244,88.07a4.66,4.66,0,0,0-2.81,1.56,4.51,4.51,0,0,0-.94,1.42,7.58,7.58,0,0,0-.71,3.79,5.33,5.33,0,0,0,2,3.3l.31.28.08,3.34c0,.36,0,.71,0,1a1.57,1.57,0,0,1-2.31,1.42h0a4.49,4.49,0,0,1-1.48-1.18,4.27,4.27,0,0,1-.9-1.26c-.42-1-.47-1.35-.48-3.5a7.73,7.73,0,0,0-.19-2.5,8.22,8.22,0,0,0-2.72-4c-1.4-1.28-1.93-1.58-2.83-1.63s-1.62.15-3.11,1.06c-.49.3-1.3.75-1.82,1s-1.53.77-2.23,1.14A47,47,0,0,1,210.1,98a33,33,0,0,1-6.83.45c-2,0-3.66,0-3.78.07-1.09.3-1.38.48-1.48.9-.16.72,1.18,2,3.18,3.14a16.51,16.51,0,0,0,4,1.53l.75.17.16,0-.19.34a1.49,1.49,0,0,0,0,1.5c.55.85,2.43,1.55,5.12,1.92.89.12,1,.15.9.27a1.42,1.42,0,0,0,.07,1c.42.76,2,1.48,3.62,1.65a8.15,8.15,0,0,0,2.71-.23l.5-.15,0,.31a2.67,2.67,0,0,0,.68,1.36,4.35,4.35,0,0,0,2.82,1,6.27,6.27,0,0,0,1.69-.28c.09,0,.11,0,.08.23-.09.94,1.32,1.45,5,1.79l.56,0-.56.64a7.25,7.25,0,0,0-1.49,2.56,7.08,7.08,0,0,0,.15,4.35c.49,1.16,1.73,2.1,3.75,2.87.61.23,2.53.79,3.38,1,.15,0,.11.09-.36.5a6.32,6.32,0,0,0-2.38,4.51,2.57,2.57,0,0,0,.15,1.31,10.47,10.47,0,0,0,5.87,6.37c.57.27.58.27.4.39a9.16,9.16,0,0,0-1.37,1.4,5.28,5.28,0,0,0-.62,6,9.55,9.55,0,0,0,2,2.22c.54.45,3.07,2.18,3.33,2.28,0,0-.06.2-.26.44a8.71,8.71,0,0,0-1.67,3.47,10,10,0,0,0-.22,2.86,4.14,4.14,0,0,0,1.8,2.6c.36.26.6.5.57.55l-.45.67a9.93,9.93,0,0,0-1.15,2.36,4.34,4.34,0,0,0,1.12,3.91l.44.56-.15.4c-.08.22-.17.49-.22.61a8.26,8.26,0,0,0-.27,1.64,2.36,2.36,0,0,0,.46,1.44,3.38,3.38,0,0,0,.86.54l.62.29,0,1.24c0,1.36.1,1.59.46,1.89.17.14.32.17.74.17.69,0,1-.13,1.1-.53a1.76,1.76,0,0,0,.12-.5c0-.44.08-.53.35-.49a1,1,0,0,0,1-.62c.17-.33.19-.45.19-1.24a2.16,2.16,0,0,0-.24-1.37l-.25-.5.22-.52a6.2,6.2,0,0,0,.31-1,2.26,2.26,0,0,0-.9-2.28l-.41-.36.26-.09A5.23,5.23,0,0,0,249,165a7.16,7.16,0,0,0,.5-2.66,3.54,3.54,0,0,0-.86-2,3.77,3.77,0,0,1-.37-.5,4,4,0,0,1,.26-.44,8.1,8.1,0,0,0,.92-2.24,7.85,7.85,0,0,0,0-2.78,6.63,6.63,0,0,0-1-2.34l-.35-.46.5-.47a11.75,11.75,0,0,1,1.72-1.18,12.52,12.52,0,0,0,1.69-1.14,6.52,6.52,0,0,0,2.05-4.39,6.79,6.79,0,0,0-1.38-3.68,8.54,8.54,0,0,0-1.46-1.36c-.11-.07,0-.12.42-.31a15.69,15.69,0,0,0,2.62-1.52,11.18,11.18,0,0,0,2.39-2.65,6.28,6.28,0,0,0,1.05-3.82,5.36,5.36,0,0,0-1.55-3.72l-.59-.66.51-.14a14.12,14.12,0,0,0,4.12-1.88,8.85,8.85,0,0,0,2.18-2.42,5.08,5.08,0,0,0-.26-4.47,10.25,10.25,0,0,0-1.51-2.28l-.33-.33.4,0,1.62-.16c1.88-.19,2.74-.42,3.19-.9a.64.64,0,0,0,.24-.68c0-.21,0-.4,0-.4l.57.12a6.83,6.83,0,0,0,3.91-.39,1.5,1.5,0,0,0,1-1.54l0-.42.47.1a9.74,9.74,0,0,0,4,0,4.43,4.43,0,0,0,2.36-1.37,1.2,1.2,0,0,0,.11-1.05c-.06-.14,0-.16.35-.2,2.87-.34,4.6-.87,5.42-1.66a1.33,1.33,0,0,0,.48-1,1.92,1.92,0,0,0-.36-1c-.15-.11-.09-.19.16-.24s.88-.29,1.66-.57L288,103a12.14,12.14,0,0,0,1.54-.7c3.15-1.73,3.3-3,.38-3.55a34.93,34.93,0,0,0-4.19-.2c-1.89,0-3.54-.08-3.67-.11l-1.47-.17a32.41,32.41,0,0,1-6.42-1.21,67.07,67.07,0,0,1-9.35-4.28,7.43,7.43,0,0,0-1-.51,5,5,0,0,1-.87-.49c-1.8-1.18-2.69-1.55-3.69-1.55a3,3,0,0,0-2.26,1,10.24,10.24,0,0,0-3.6,4.88l-.24.82v4.44l-.29.63a7.84,7.84,0,0,1-4.72,3.59l-.53.16v-.3c0-.16,0-1.75.08-3.52l.09-3.22.59-.65a5.1,5.1,0,0,0,1.23-2,7.26,7.26,0,0,0-.27-5.17,4.56,4.56,0,0,0-3.21-2.71A5.71,5.71,0,0,0,244,88.07Zm-3.81,8a2.18,2.18,0,0,1,.2.51,3.14,3.14,0,0,1-.45-.89C239.88,95.35,240,95.46,240.21,96Zm1.8,19a.41.41,0,0,1,.15.26c0,.12.05,1.65.08,3.4s.06,3.63.08,4.17l0,1-.46,0-1.64-.12c-1.38-.11-4.92-.59-5.89-.81a3.76,3.76,0,0,1-3-2.25,2.71,2.71,0,0,1-.14-2,3.14,3.14,0,0,1,1.85-1.45,7.9,7.9,0,0,1,3.14-.17c3.42.2,4.8-.3,4.72-1.7l0-.43.49,0A3.89,3.89,0,0,1,242,115Zm7.11.54a1,1,0,0,0,.64,1.07c.88.48,2.13.63,4.67.56,2.12-.06,2.7,0,3.31.4a2.74,2.74,0,0,1,1,1.35c.28.91,0,1.77-.95,2.87s-1.46,1.28-3.7,1.51c-.67.07-1.81.21-2.51.32a26.63,26.63,0,0,1-4.22.47l-.36,0,.05-1.55c0-.85.08-2.79.13-4.32,0-.56,0-1.09,0-1.53a1.59,1.59,0,0,1,1.41-1.51l.2,0h.3Zm.28,12.26c2.21.53,3.43,1.31,3.95,2.53a3.66,3.66,0,0,1,0,2.36c-.57,1.58-2.42,2.84-5.58,3.78-1.22.37-1.12.43-1.08-.79,0-1,.17-6.15.19-7.54l0-.64.81,0A12.12,12.12,0,0,1,249.4,127.83Zm-7,1.92c0,1.12.07,3.17.1,4.55l0,2.52-.47-.12a10.31,10.31,0,0,1-4.23-2.19,11.46,11.46,0,0,1-1.47-2.19,1.5,1.5,0,0,1-.14-.9c.12-1.49,1.33-2.59,3.57-3.22l.7-.16a1.57,1.57,0,0,1,1.89,1.5Zm4.8,11.79a4.92,4.92,0,0,1,1.85,1.3,1.8,1.8,0,0,1,.6,1.47c0,.56,0,.58-.42,1.35a5.48,5.48,0,0,1-2.3,2.28l-.54.34.05-2.53a29.5,29.5,0,0,1,.2-4.41A4,4,0,0,1,247.25,141.54Zm-4.53.38c0,.23,0,1.55.07,2.92s.05,2.51,0,2.53a6.5,6.5,0,0,1-1.55-1.32c-.77-.83-.94-1.18-.94-1.93a1.8,1.8,0,0,1,.66-1.54,5.6,5.6,0,0,1,1.65-1.08S242.72,141.69,242.72,141.92Zm11.16,2.32c0,.14,0,.15-.14.06s-.14-.1,0-.16l.15,0A.85.85,0,0,1,253.88,144.24Zm-5.65,7s-.08.08-.17.13-.16.09-.06,0S248.23,151.12,248.23,151.21ZM240,157.66c0,.07-.06.11-.07.09a.11.11,0,0,1,0-.12C240,157.5,240.07,157.52,240,157.66Zm9.16,5.85c-.05.09-.1.14-.12.12s0-.1.05-.17S249.28,163.31,249.18,163.51Z" transform="translate(-57.42 -88)"/><text x="-57.42" y="-88"></text><text x="-57.42" y="-88"></text><text x="-57.42" y="-88"></text><text class="cls-2" transform="translate(30.58 136)"><tspan class="cls-3">G</tspan><tspan x="115.92" y="0">uanajua</tspan><tspan class="cls-4" x="431.05" y="0">t</tspan><tspan x="468.99" y="0">o</tspan></text><text x="-57.42" y="-88"></text><text x="-57.42" y="-88"></text><text class="cls-5" transform="translate(247.19 39)">O<tspan class="cls-6" x="26.76" y="0">r</tspan><tspan class="cls-7" x="39.48" y="0">t</tspan><tspan class="cls-8" x="50.79" y="0">opedia y</tspan><tspan x="-24.61" y="26" xml:space="preserve"> t</tspan><tspan class="cls-9" x="-2.35" y="26">r</tspan><tspan x="9.53" y="26">aum</tspan><tspan class="cls-10" x="82.42" y="26">a</tspan><tspan class="cls-7" x="104.92" y="26">t</tspan><tspan class="cls-11" x="116.23" y="26">o</tspan><tspan x="137.14" y="26">lo</tspan><tspan class="cls-12" x="168.16" y="26">g</tspan><tspan class="cls-13" x="190.48" y="26">ía</tspan></text></svg>